<svg width="52" height="49" viewBox="0 0 52 49" fill="none" xmlns="http://www.w3.org/2000/svg">
<path fill-rule="evenodd" clip-rule="evenodd" d="M26 0C11.635 0 0 11.2411 0 25.1197C0 36.2352 7.4425 45.6237 17.7775 48.952C19.0775 49.1718 19.565 48.4182 19.565 47.7588C19.565 47.1622 19.5325 45.1841 19.5325 43.0803C13 44.2421 11.31 41.5417 10.79 40.1287C10.4975 39.4065 9.23 37.1772 8.125 36.5806C7.215 36.1096 5.915 34.9478 8.0925 34.9164C10.14 34.885 11.6025 36.7376 12.09 37.4911C14.43 41.2905 18.1675 40.2229 19.6625 39.5635C19.89 37.9307 20.5725 36.8318 21.32 36.2038C15.535 35.5758 9.49 33.4092 9.49 23.8009C9.49 21.0691 10.4975 18.8084 12.155 17.05C11.895 16.422 10.985 13.8472 12.415 10.3933C12.415 10.3933 14.5925 9.73388 19.565 12.968C21.645 12.4029 23.855 12.1203 26.065 12.1203C28.275 12.1203 30.485 12.4029 32.565 12.968C37.5375 9.70248 39.715 10.3933 39.715 10.3933C41.145 13.8472 40.235 16.422 39.975 17.05C41.6325 18.8084 42.64 21.0377 42.64 23.8009C42.64 33.4406 36.5625 35.5758 30.7775 36.2038C31.72 36.9888 32.5325 38.4959 32.5325 40.8509C32.5325 44.2107 32.5 46.911 32.5 47.7588C32.5 48.4182 32.9875 49.2032 34.2875 48.952C39.4489 47.2684 43.9339 44.0635 47.1113 39.7883C50.2887 35.5131 51.9984 30.3829 52 25.1197C52 11.2411 40.365 0 26 0Z" fill="black"/>
</svg>
