<svg width="65" height="53" viewBox="0 0 65 53" fill="none" xmlns="http://www.w3.org/2000/svg">
<path d="M49.1364 37.3739C50.8243 34.0756 51.9091 30.439 51.9091 26.4983C51.9091 22.5032 50.8693 18.9533 49.1364 15.6227M57.4545 45.5307C60.8303 39.753 63 34.655 63 26.4983C63 18.3416 60.9205 13.2946 57.4545 7.46593M15.4564 15.6227H3.38636C3.01868 15.6227 2.66605 15.7659 2.40606 16.0208C2.14606 16.2758 2 16.6216 2 16.9821V36.0145C2 36.375 2.14606 36.7208 2.40606 36.9758C2.66605 37.2307 3.01868 37.3739 3.38636 37.3739H15.4564C16.0972 37.3743 16.7182 37.5922 17.2136 37.9908L33.0649 50.7357C33.2716 50.8848 33.5165 50.9747 33.7722 50.9954C34.0279 51.0161 34.2845 50.9668 34.5133 50.853C34.7422 50.7392 34.9344 50.5654 35.0684 50.3509C35.2025 50.1363 35.2732 49.8895 35.2727 49.6379V3.35868C35.2726 3.10736 35.2014 2.86099 35.0671 2.64695C34.9327 2.43292 34.7405 2.25958 34.5118 2.1462C34.2831 2.03282 34.0268 1.98384 33.7713 2.00469C33.5159 2.02554 33.2714 2.11541 33.0649 2.26432L17.2136 15.0092C16.7177 15.4065 16.0968 15.6233 15.4564 15.6227V15.6227Z" stroke="#082143" stroke-width="4" stroke-linecap="round" stroke-linejoin="round"/>
</svg>
