<svg width="30" height="30" viewBox="0 0 30 30" fill="none" xmlns="http://www.w3.org/2000/svg">
<path d="M15.4688 24.3862C15.169 24.386 14.8771 24.2896 14.6361 24.1113L14.5975 24.0815L9.23848 19.6869H5.15625C4.78329 19.6869 4.4256 19.5388 4.16188 19.2751C3.89816 19.0113 3.75 18.6536 3.75 18.2807V11.7188C3.75 11.3458 3.89816 10.9881 4.16188 10.7244C4.4256 10.4607 4.78329 10.3125 5.15625 10.3125H9.2373L14.5963 5.91799L14.635 5.88811C14.8445 5.73385 15.0927 5.64073 15.3519 5.61912C15.6112 5.59751 15.8714 5.64824 16.1035 5.76569C16.3357 5.88313 16.5307 6.06268 16.6669 6.28435C16.8031 6.50603 16.8751 6.76114 16.875 7.02131V22.9787C16.875 23.3517 16.7268 23.7094 16.4631 23.9731C16.1994 24.2368 15.8417 24.385 15.4688 24.385V24.3862ZM20.625 19.6875C20.4651 19.6874 20.3079 19.6465 20.1683 19.5685C20.0287 19.4905 19.9114 19.3781 19.8275 19.242C19.7435 19.1059 19.6958 18.9506 19.6889 18.7908C19.6819 18.6311 19.7159 18.4722 19.7877 18.3293C20.3438 17.2219 20.6256 16.1028 20.6256 15C20.6256 13.8656 20.3525 12.7781 19.7906 11.676C19.683 11.4552 19.6663 11.2009 19.7442 10.9679C19.8222 10.7349 19.9884 10.5418 20.2073 10.4301C20.4261 10.3184 20.6801 10.2972 20.9145 10.3708C21.1488 10.4445 21.3449 10.6073 21.4605 10.824C22.1602 12.1969 22.5 13.5627 22.5 15C22.5 16.3963 22.1484 17.7996 21.4629 19.1707C21.3849 19.3261 21.2652 19.4567 21.1172 19.548C20.9693 19.6392 20.7988 19.6875 20.625 19.6875Z" fill="#082143"/>
<path d="M23.4373 22.5C23.2727 22.5001 23.1109 22.4569 22.9683 22.3747C22.8257 22.2925 22.7072 22.1741 22.6248 22.0316C22.5424 21.889 22.4991 21.7273 22.499 21.5627C22.499 21.398 22.5423 21.2363 22.6246 21.0937C23.7303 19.1631 24.3748 17.5459 24.3748 15C24.3748 12.4148 23.7338 10.8094 22.627 8.90916C22.5127 8.69491 22.4861 8.44468 22.5526 8.21117C22.6192 7.97766 22.7737 7.77907 22.9837 7.65721C23.1937 7.53534 23.4428 7.49972 23.6786 7.55782C23.9143 7.61593 24.1183 7.76323 24.2477 7.96873C25.4834 10.0875 26.2498 12.0047 26.2498 15C26.2498 17.9508 25.4846 19.8773 24.2506 22.0312C24.1682 22.174 24.0496 22.2924 23.9069 22.3747C23.7641 22.457 23.6021 22.5002 23.4373 22.5Z" fill="#082143"/>
</svg>
