<svg width="60" height="100" viewBox="0 0 60 100" fill="none" xmlns="http://www.w3.org/2000/svg">
<path d="M7.50293 5.1376L21.4474 0V5.1376L7.50293 9.76283V5.1376Z" fill="#233862"/>
<path d="M8.77474 4.88043V25.8502C8.77474 25.8502 0.802314 28.3171 0.0492867 24.0005C-0.703741 19.6839 7.42122 22.1508 7.42122 22.1508L7.49459 5.46403L8.77474 4.88043Z" fill="#233862"/>
<path d="M21.4456 0.670654V21.6405C21.4456 21.6405 13.4732 24.1074 12.7202 19.7908C11.9672 15.4741 20.0921 17.9411 20.0921 17.9411L20.1655 1.25622L21.4456 0.670654Z" fill="#233862"/>
<path d="M37.0943 77.4656L52.3421 73.1925L51.9251 78.6565L36.7178 82.3836L37.0943 77.4656Z" fill="#FFCF0B"/>
<path d="M38.4766 77.3014L36.7697 99.5986C36.7697 99.5986 28.0809 101.539 27.6407 96.8864C27.2005 92.2334 35.6305 95.5471 35.6305 95.5471L37.0651 77.8078L38.4766 77.3014Z" fill="#FFCF0B"/>
<path d="M52.2872 73.9027L50.5823 96.198C50.5823 96.198 41.8935 98.1406 41.4514 93.4857C41.0092 88.8308 49.4431 92.1484 49.4431 92.1484L50.8777 74.4092L52.2872 73.9027Z" fill="#FFCF0B"/>
<path d="M30.9639 21.2547L59.9998 13.2723L59.156 23.6622L30.2031 30.606L30.9639 21.2547Z" fill="#AFCDFB"/>
<path d="M33.5965 20.9559L30.1461 63.3426C30.1461 63.3426 13.6181 66.953 12.8071 58.0962C11.9962 49.2394 28.0163 55.6293 28.0163 55.6293L30.9126 21.9035L33.5965 20.9559Z" fill="#AFCDFB"/>
<path d="M59.8934 14.6234L56.4468 57.0101C56.4468 57.0101 39.9189 60.6205 39.1079 51.7637C38.297 42.907 54.3171 49.2948 54.3171 49.2948L57.2134 15.571L59.8934 14.6234Z" fill="#AFCDFB"/>
</svg>
