<svg width="65" height="105" viewBox="0 0 65 105" fill="none" xmlns="http://www.w3.org/2000/svg">
<path d="M36.0052 50.7942C35.842 50.9976 35.7559 51.2424 35.7595 51.4928C35.7631 51.7432 35.8562 51.9859 36.0252 52.1855C36.0534 52.2183 36.0773 52.254 36.0962 52.2918C42.4925 55.7312 61.6759 69.6446 61.6759 79.4518V99.7689H3.77943V79.4409C3.77943 69.571 23.2248 55.436 29.4801 52.1825C29.6497 51.9802 29.743 51.7348 29.7466 51.4819C29.7431 51.2256 29.6499 50.9767 29.4801 50.7704C23.2093 47.4443 3.77832 33.4136 3.77832 23.5418V3.22668H61.6748V23.5517C61.6759 33.4107 42.2938 47.5119 36.0052 50.7942Z" fill="#EBF3FA"/>
<path d="M3.04659 99.7669H62.0744C62.8497 99.7669 63.5933 100.043 64.1415 100.533C64.6898 101.024 64.9978 101.69 64.9978 102.383V105H0V102.496C-2.14365e-07 101.772 0.320908 101.079 0.892192 100.567C1.46348 100.055 2.23838 99.7675 3.04659 99.7669Z" fill="#FFCF0B"/>
<path d="M20.3525 80.698C20.0561 85.2463 21.0187 95.0546 20.9343 99.7659H3.77943V79.4409C3.77943 69.571 23.2248 55.436 29.4801 52.1825C29.6497 51.9802 29.743 51.7348 29.7466 51.4819C29.7432 51.2256 29.65 50.9767 29.4801 50.7704C23.2093 47.4443 3.77832 33.4136 3.77832 23.5418V3.22668H15.2541L23.4469 5.23305V21.3009C23.4469 21.3009 22.6352 25.9288 24.6682 30.4742C26.7011 35.0195 31.0611 49.6027 30.9967 51.4968C30.9323 53.3909 20.8599 72.9031 20.3525 80.698Z" fill="#E1EFFF"/>
<path d="M54.181 16.7327C50.6703 16.7804 44.6326 17.3468 34.8744 19.5509C28.1906 21.0604 16.6659 19.9236 10.5716 19.1415C10.0684 19.0769 9.55554 19.1098 9.06773 19.2378C8.57991 19.3659 8.12846 19.5861 7.74389 19.8837C7.35933 20.1813 7.05059 20.5492 6.83853 20.9628C6.62646 21.3763 6.51602 21.8257 6.51465 22.2807V24.626C6.51465 31.0783 25.9112 45.0554 31.0406 48.6388C31.4242 48.9066 31.7344 49.2491 31.9478 49.6403C32.1611 50.0316 32.272 50.4612 32.2719 50.8966V86.7747C32.2705 87.3779 32.1065 87.9718 31.7937 88.506C31.481 89.0403 31.0288 89.4991 30.4755 89.8434C26.4419 92.3705 19.6448 99.765 19.6448 99.765H45.351C45.351 99.765 38.4573 92.6289 34.5891 89.9796C34.1529 89.6821 33.7993 89.2987 33.5557 88.859C33.3121 88.4193 33.1851 87.9353 33.1846 87.4445V50.8847C33.1846 50.4515 33.2934 50.0239 33.5028 49.6335C33.7123 49.243 34.0171 48.8997 34.3948 48.6289C39.4232 45.0265 58.4001 30.9979 58.4001 24.5504V20.4542C58.4 19.9609 58.2903 19.4725 58.0775 19.0175C57.8647 18.5624 57.553 18.1497 57.1604 17.8035C56.7678 17.4572 56.3023 17.1842 55.7908 17.0004C55.2793 16.8166 54.7321 16.7255 54.181 16.7327Z" fill="#AFCDFB"/>
<path d="M0 0H65V2.51914C65 3.23891 64.6805 3.92921 64.1119 4.43817C63.5433 4.94713 62.772 5.23305 61.9678 5.23305H2.92335C2.14803 5.23305 1.40447 4.95739 0.856235 4.46669C0.308 3.976 0 3.31047 0 2.61652V0Z" fill="#FFCF0B"/>
</svg>
