<svg width="40" height="40" viewBox="0 0 40 40" fill="none" xmlns="http://www.w3.org/2000/svg">
<g clip-path="url(#clip0_304_3174)">
<path d="M16.7996 0C16.5874 0 16.384 0.0842855 16.2339 0.234315C16.0839 0.384344 15.9996 0.587827 15.9996 0.8V2.4C15.9996 2.61217 16.0839 2.81566 16.2339 2.96569C16.384 3.11571 16.5874 3.2 16.7996 3.2H17.9996V5.318C9.34521 6.314 2.59961 13.6836 2.59961 22.6C2.59961 32.1932 10.4064 40 19.9996 40C29.5928 40 37.3996 32.1932 37.3996 22.6C37.4024 19.3165 36.47 16.1002 34.7116 13.3272L36.4068 11.9548L37.162 12.8876C37.2281 12.9693 37.3096 13.0372 37.4019 13.0873C37.4942 13.1375 37.5955 13.169 37.7 13.1801C37.8045 13.1911 37.9101 13.1814 38.0109 13.1516C38.1116 13.1218 38.2055 13.0725 38.2872 13.0064L39.5312 11.9992C39.6959 11.8656 39.8008 11.6721 39.8228 11.4611C39.8449 11.2502 39.7823 11.0392 39.6488 10.8744L35.6216 5.9C35.5555 5.81831 35.474 5.75044 35.3817 5.70026C35.2894 5.65008 35.1881 5.61857 35.0836 5.60754C34.9791 5.59651 34.8735 5.60617 34.7727 5.63596C34.672 5.66576 34.5781 5.71511 34.4964 5.7812L33.2524 6.7884C33.0877 6.92201 32.9828 7.11554 32.9608 7.32646C32.9387 7.53737 33.0013 7.74842 33.1348 7.9132L33.8904 8.846L32.2024 10.2116C29.5076 7.5564 25.9528 5.774 21.9996 5.3188V3.2H23.1996C23.4118 3.2 23.6153 3.11571 23.7653 2.96569C23.9153 2.81566 23.9996 2.61217 23.9996 2.4V0.8C23.9996 0.587827 23.9153 0.384344 23.7653 0.234315C23.6153 0.0842855 23.4118 0 23.1996 0L16.7996 0ZM19.9996 8C28.0796 8 34.5996 14.52 34.5996 22.6C34.5996 30.68 28.0796 37.2 19.9996 37.2C11.9196 37.2 5.39961 30.68 5.39961 22.6C5.39961 14.52 11.9196 8 19.9996 8ZM20.0004 10.9772L19.9996 22.6L29.2932 29.5788C30.5896 27.8524 31.3795 25.7991 31.5743 23.6489C31.7692 21.4988 31.3613 19.3369 30.3964 17.4056C29.4315 15.4743 27.9478 13.85 26.1116 12.7146C24.2754 11.5793 22.1593 10.9778 20.0004 10.9776V10.9772Z" fill="#082143"/>
</g>
<defs>
<clipPath id="clip0_304_3174">
<rect width="40" height="40" fill="white"/>
</clipPath>
</defs>
</svg>
