<svg width="40" height="40" viewBox="0 0 40 40" fill="none" xmlns="http://www.w3.org/2000/svg">
<g clip-path="url(#clip0_500_1312)">
<path d="M11.3625 16.785L10.275 20H7.5L12.155 7.5H15.365L20 20H17.0825L15.995 16.785H11.3625ZM15.4475 14.945L13.75 9.89H13.6275L11.93 14.945H15.45H15.4475Z" fill="#082143"/>
<path d="M0 5C0 3.67392 0.526784 2.40215 1.46447 1.46447C2.40215 0.526784 3.67392 0 5 0L22.5 0C23.8261 0 25.0979 0.526784 26.0355 1.46447C26.9732 2.40215 27.5 3.67392 27.5 5V12.5H35C36.3261 12.5 37.5979 13.0268 38.5355 13.9645C39.4732 14.9021 40 16.1739 40 17.5V35C40 36.3261 39.4732 37.5979 38.5355 38.5355C37.5979 39.4732 36.3261 40 35 40H17.5C16.1739 40 14.9021 39.4732 13.9645 38.5355C13.0268 37.5979 12.5 36.3261 12.5 35V27.5H5C3.67392 27.5 2.40215 26.9732 1.46447 26.0355C0.526784 25.0979 0 23.8261 0 22.5V5ZM5 2.5C4.33696 2.5 3.70107 2.76339 3.23223 3.23223C2.76339 3.70107 2.5 4.33696 2.5 5V22.5C2.5 23.163 2.76339 23.7989 3.23223 24.2678C3.70107 24.7366 4.33696 25 5 25H22.5C23.163 25 23.7989 24.7366 24.2678 24.2678C24.7366 23.7989 25 23.163 25 22.5V5C25 4.33696 24.7366 3.70107 24.2678 3.23223C23.7989 2.76339 23.163 2.5 22.5 2.5H5ZM22.845 27.4875C23.3275 28.24 23.85 28.945 24.42 29.6025C22.55 31.04 20.2375 32.105 17.5 32.8325C17.945 33.375 18.6275 34.42 18.8875 35C21.7 34.1025 24.0875 32.89 26.1025 31.265C28.045 32.9275 30.45 34.1775 33.4275 34.945C33.76 34.31 34.4625 33.2625 35 32.72C32.1875 32.0875 29.8575 30.985 27.95 29.51C29.6525 27.6425 31.005 25.3825 32.0025 22.6175H35V20H27.5V22.6175H29.4125C28.6175 24.7275 27.5625 26.4825 26.2325 27.9425C25.8651 27.5511 25.5188 27.1406 25.195 26.7125C24.4895 27.1648 23.6811 27.4314 22.845 27.4875V27.4875Z" fill="#082143"/>
</g>
<defs>
<clipPath id="clip0_500_1312">
<rect width="40" height="40" fill="white"/>
</clipPath>
</defs>
</svg>
