<svg width="22" height="18" viewBox="0 0 22 18" fill="none" xmlns="http://www.w3.org/2000/svg">
<path d="M16.4545 12.5507C17.008 11.4737 17.3636 10.2862 17.3636 8.99944C17.3636 7.69492 17.0227 6.53578 16.4545 5.44822M19.1818 15.2141C20.2886 13.3275 21 11.6629 21 8.99944C21 6.33602 20.3182 4.68803 19.1818 2.78479M5.41193 5.44822H1.45455C1.33399 5.44822 1.21838 5.49498 1.13313 5.57823C1.04789 5.66148 1 5.77439 1 5.89212V12.1068C1 12.2245 1.04789 12.3374 1.13313 12.4207C1.21838 12.5039 1.33399 12.5507 1.45455 12.5507H5.41193C5.62204 12.5508 5.82563 12.622 5.98807 12.7521L11.1852 16.9137C11.253 16.9624 11.3333 16.9917 11.4171 16.9985C11.501 17.0053 11.5851 16.9892 11.6601 16.952C11.7351 16.9149 11.7981 16.8581 11.8421 16.788C11.8861 16.718 11.9093 16.6374 11.9091 16.5552V1.44365C11.909 1.36159 11.8857 1.28114 11.8417 1.21125C11.7976 1.14136 11.7346 1.08476 11.6596 1.04774C11.5846 1.01072 11.5006 0.994722 11.4168 1.00153C11.3331 1.00834 11.2529 1.03768 11.1852 1.08631L5.98807 5.2479C5.82547 5.37765 5.6219 5.44843 5.41193 5.44822V5.44822Z" stroke="#A1A1A1" stroke-width="1.8" stroke-linecap="round" stroke-linejoin="round"/>
</svg>
