<svg width="24" height="20" viewBox="0 0 24 20" fill="none" xmlns="http://www.w3.org/2000/svg">
<path d="M18 13.9945C18.6087 12.7829 19 11.447 19 9.99938C19 8.53179 18.625 7.22775 18 6.00424M21 16.9909C22.2175 14.8684 23 12.9957 23 9.99938C23 7.00303 22.25 5.14903 21 3.00789M5.85312 6.00424H1.5C1.36739 6.00424 1.24021 6.05686 1.14645 6.15051C1.05268 6.24417 1 6.37119 1 6.50363V13.4951C1 13.6276 1.05268 13.7546 1.14645 13.8482C1.24021 13.9419 1.36739 13.9945 1.5 13.9945H5.85312C6.08424 13.9946 6.30819 14.0747 6.48687 14.2211L12.2038 18.9029C12.2783 18.9577 12.3666 18.9907 12.4588 18.9983C12.5511 19.0059 12.6436 18.9878 12.7261 18.946C12.8087 18.9042 12.878 18.8404 12.9263 18.7615C12.9747 18.6827 13.0002 18.5921 13 18.4996V1.49911C12.9999 1.40678 12.9743 1.31628 12.9258 1.23766C12.8774 1.15903 12.8081 1.09536 12.7256 1.05371C12.6431 1.01206 12.5506 0.994062 12.4585 1.00172C12.3664 1.00938 12.2782 1.0424 12.2038 1.0971L6.48687 5.77889C6.30802 5.92485 6.08409 6.00448 5.85312 6.00424V6.00424Z" stroke="#082143" stroke-width="1.8" stroke-linecap="round" stroke-linejoin="round"/>
</svg>
