<svg width="313" height="345" viewBox="0 0 313 345" fill="none" xmlns="http://www.w3.org/2000/svg">
<path d="M40.5498 210.89C28.9798 215.42 18.3198 216.63 14.5498 222.18C20.2498 234.69 25.0098 238.63 38.3598 241.9C43.1098 237.16 42.3098 226.46 44.6098 214.26C44.7154 213.73 44.6758 213.181 44.4952 212.671C44.3146 212.162 43.9996 211.711 43.5837 211.365C43.1677 211.02 42.6662 210.794 42.1322 210.71C41.5982 210.626 41.0514 210.688 40.5498 210.89Z" fill="#205134"/>
<path d="M75.4503 228C66.6303 236.75 57.3203 242.08 56.0703 248.68C66.2603 257.9 72.1903 259.63 85.7403 257.33C88.2303 251.1 83.2503 241.59 80.5103 229.48C80.3961 228.952 80.1417 228.466 79.7739 228.07C79.406 227.675 78.9385 227.387 78.4204 227.235C77.9023 227.084 77.353 227.075 76.8303 227.209C76.3075 227.344 75.8308 227.617 75.4503 228Z" fill="#205134"/>
<path d="M66.2505 295.73C66.2505 295.73 6.80047 272.23 1.41047 202.27C1.38059 201.929 1.45969 201.587 1.63636 201.293C1.81304 201 2.07824 200.77 2.39381 200.637C2.70937 200.503 3.05904 200.473 3.39265 200.551C3.72625 200.629 4.02661 200.811 4.2505 201.07C14.7705 213.13 50.8405 249.83 98.0005 246.51L89.2705 290.17L66.2505 295.73Z" fill="#297247"/>
<path d="M312.25 321.84C312.06 320.49 310.25 319.52 307.56 319.08C307.466 319.068 307.379 319.026 307.312 318.96C307.245 318.895 307.201 318.809 307.188 318.716C307.174 318.623 307.191 318.528 307.237 318.445C307.282 318.363 307.354 318.298 307.44 318.26C309.91 317.07 311.44 315.63 311.19 314.26C311.02 313.07 309.58 312.18 307.4 311.68V311.34C309.91 310.15 311.4 308.69 311.21 307.34C310.86 304.9 305.29 304.24 298.64 304.64C289.64 305.17 285.64 303.2 279.64 301.59C261.9 296.79 247.64 286.59 237.26 280.23C234.777 278.71 232.747 276.554 231.379 273.985C230.01 271.416 229.355 268.528 229.48 265.62C229.58 263.22 229.63 260.76 229.63 258.22C229.63 235.95 225.73 211.34 218.97 188.66C236.34 187.25 253.68 183.66 264.72 178.66C291.23 166.66 292.92 158.66 289.78 155.31C286.64 151.96 252.78 156.81 231.78 154.58C214.78 152.78 201.51 138.64 193.6 133.86C193.349 133.519 193.184 133.124 193.115 132.706C193.047 132.289 193.079 131.862 193.208 131.459C193.336 131.056 193.559 130.689 193.856 130.389C194.154 130.089 194.518 129.863 194.92 129.73C201.81 127.43 208.66 124.73 215.38 121.73C250.02 106.39 285.2 76.26 292.62 57.45C293.14 56.16 304.4 46.6 306.85 40.84C311.12 30.79 308.28 20.55 305.91 15.21C302.83 8.21 294.57 7.21 282.26 9.08C280.62 5.83 277.87 0.930023 275.95 0.480023C274.03 0.0300228 272.35 6.87004 271.57 11.12C254.69 14.83 232.66 21.37 207.26 25.82C205.642 26.1025 203.977 25.837 202.527 25.0652C201.078 24.2935 199.928 23.0599 199.26 21.5601V21.5101C196.279 14.7824 191.284 9.14492 184.965 5.37443C178.646 1.60395 171.313 -0.113943 163.977 0.457562C156.64 1.02907 149.662 3.86176 144.003 8.56535C138.344 13.2689 134.283 19.6119 132.38 26.72C132.107 27.7251 131.613 28.6567 130.935 29.4468C130.256 30.2369 129.41 30.8657 128.457 31.2873C127.505 31.7088 126.471 31.9125 125.43 31.8836C124.389 31.8547 123.367 31.5938 122.44 31.12C117.72 28.6807 112.512 27.3333 107.202 27.1775C101.892 27.0217 96.6141 28.0615 91.7596 30.22C74.3596 37.93 65.3396 51.15 66.1596 65.11C68.3496 102.41 84.4596 123.48 107.38 132.98C108.216 133.317 108.948 133.87 109.502 134.582C110.056 135.294 110.411 136.14 110.532 137.034C110.653 137.928 110.535 138.838 110.19 139.672C109.846 140.505 109.286 141.233 108.57 141.78C101.21 147.31 91.9296 153.42 81.1296 154.56C60.1296 156.79 26.2296 151.9 23.1296 155.29C20.0296 158.68 21.6896 166.69 48.1996 178.64C59.1996 183.64 76.5696 187.18 93.9496 188.64C87.1796 211.32 83.2896 235.93 83.2896 258.2C83.2896 260.74 83.3396 263.2 83.4396 265.6C83.5644 268.508 82.9087 271.396 81.5407 273.965C80.1726 276.534 78.142 278.69 75.6596 280.21C65.2796 286.58 51.0196 296.77 33.2796 301.57C27.3296 303.18 23.2796 305.15 14.2796 304.62C7.63963 304.22 2.05962 304.88 1.70962 307.32C1.51962 308.68 3.01963 310.14 5.52963 311.32V311.66C3.33963 312.16 1.90958 313.05 1.72958 314.24C1.53958 315.6 3.00959 317.04 5.48959 318.24C5.57559 318.278 5.64681 318.343 5.69228 318.425C5.73776 318.508 5.75497 318.603 5.74136 318.696C5.72774 318.789 5.68405 318.875 5.61691 318.94C5.54976 319.006 5.46287 319.048 5.36959 319.06C2.67959 319.5 0.869579 320.47 0.669579 321.82C0.319579 324.26 5.66957 325.93 11.9696 327.95C17.3496 329.67 51.4896 343.05 84.0996 344.14C93.3125 344.486 102.538 344.058 111.68 342.86C122.166 341.366 132.804 341.255 143.32 342.53C152.103 343.61 160.986 343.61 169.77 342.53C180.285 341.255 190.923 341.366 201.41 342.86C210.554 344.058 219.783 344.486 229 344.14C261.61 343.05 295.75 329.67 301.13 327.95C307.3 326 312.6 324.28 312.25 321.84Z" fill="#4EAF79"/>
<path d="M312.25 321.84C312.06 320.49 310.25 319.52 307.56 319.08C307.466 319.068 307.379 319.026 307.312 318.96C307.245 318.895 307.201 318.809 307.188 318.716C307.174 318.623 307.191 318.528 307.237 318.445C307.282 318.363 307.354 318.298 307.44 318.26C309.91 317.07 311.44 315.63 311.19 314.26C311.02 313.07 309.58 312.18 307.4 311.68V311.34C309.91 310.15 311.4 308.69 311.21 307.34C310.86 304.9 305.29 304.24 298.64 304.64C289.64 305.17 285.64 303.2 279.64 301.59C261.9 296.79 247.64 286.59 237.26 280.23C234.777 278.71 232.747 276.554 231.379 273.985C230.01 271.416 229.355 268.528 229.48 265.62C229.58 263.22 229.63 260.76 229.63 258.22C229.63 235.95 225.73 211.34 218.97 188.66C236.34 187.25 253.68 183.66 264.72 178.66C291.23 166.66 292.92 158.66 289.78 155.31C286.64 151.96 252.78 156.81 231.78 154.58C214.78 152.78 201.51 138.64 193.6 133.86C193.349 133.519 193.184 133.124 193.115 132.706C193.047 132.289 193.079 131.862 193.208 131.459C193.336 131.056 193.559 130.689 193.856 130.389C194.154 130.089 194.518 129.863 194.92 129.73C201.81 127.43 208.66 124.73 215.38 121.73C250.02 106.39 285.2 76.26 292.62 57.45C293.14 56.16 304.4 46.6 306.85 40.84C311.12 30.79 308.28 20.55 305.91 15.21C302.83 8.21 294.57 7.21 282.26 9.08C280.62 5.83 277.87 0.930023 275.95 0.480023C274.03 0.0300228 272.35 6.87004 271.57 11.12C254.69 14.83 232.66 21.37 207.26 25.82C205.642 26.1025 203.977 25.837 202.527 25.0652C201.078 24.2935 199.928 23.0599 199.26 21.5601V21.5101C196.279 14.7824 191.284 9.14492 184.965 5.37443C178.646 1.60395 171.313 -0.113943 163.977 0.457562C156.64 1.02907 149.662 3.86176 144.003 8.56535C138.344 13.2689 134.283 19.6119 132.38 26.72C132.107 27.7251 131.613 28.6567 130.935 29.4468C130.256 30.2369 129.41 30.8657 128.457 31.2873C127.505 31.7088 126.471 31.9125 125.43 31.8836C124.389 31.8547 123.367 31.5938 122.44 31.12C117.72 28.6807 112.512 27.3333 107.202 27.1775C101.892 27.0217 96.6141 28.0615 91.7596 30.22C74.3596 37.93 65.3396 51.15 66.1596 65.11C68.3496 102.41 84.4596 123.48 107.38 132.98C108.216 133.317 108.948 133.87 109.502 134.582C110.056 135.294 110.411 136.14 110.532 137.034C110.653 137.928 110.535 138.838 110.19 139.672C109.846 140.505 109.286 141.233 108.57 141.78C101.21 147.31 91.9296 153.42 81.1296 154.56C60.1296 156.79 26.2296 151.9 23.1296 155.29C20.0296 158.68 21.6896 166.69 48.1996 178.64C59.1996 183.64 76.5696 187.18 93.9496 188.64C87.1796 211.32 83.2896 235.93 83.2896 258.2C83.2896 260.74 83.3396 263.2 83.4396 265.6C83.5644 268.508 82.9087 271.396 81.5407 273.965C80.1726 276.534 78.142 278.69 75.6596 280.21C65.2796 286.58 51.0196 296.77 33.2796 301.57C27.3296 303.18 23.2796 305.15 14.2796 304.62C7.63963 304.22 2.05962 304.88 1.70962 307.32C1.51962 308.68 3.01963 310.14 5.52963 311.32V311.66C3.33963 312.16 1.90958 313.05 1.72958 314.24C1.53958 315.6 3.00959 317.04 5.48959 318.24C5.57559 318.278 5.64681 318.343 5.69228 318.425C5.73776 318.508 5.75497 318.603 5.74136 318.696C5.72774 318.789 5.68405 318.875 5.61691 318.94C5.54976 319.006 5.46287 319.048 5.36959 319.06C2.67959 319.5 0.869579 320.47 0.669579 321.82C0.319579 324.26 5.66957 325.93 11.9696 327.95C17.3496 329.67 51.4896 343.05 84.0996 344.14C93.3125 344.486 102.538 344.058 111.68 342.86C122.166 341.366 132.804 341.255 143.32 342.53C152.103 343.61 160.986 343.61 169.77 342.53C180.285 341.255 190.923 341.366 201.41 342.86C210.554 344.058 219.783 344.486 229 344.14C261.61 343.05 295.75 329.67 301.13 327.95C307.3 326 312.6 324.28 312.25 321.84Z" fill="#4EAF79"/>
<path d="M104.16 94.29C103.97 97.61 109.24 100.59 115.91 100.96C122.58 101.33 128.15 98.9599 128.33 95.6299C128.51 92.2999 123.25 89.3299 116.57 88.9599C109.89 88.5899 104.34 91 104.16 94.29Z" fill="#B27D44"/>
<path d="M35.5101 172.33C49.7001 166.86 45.1901 154.56 45.1901 154.56C33.7501 154.04 24.5601 153.67 22.9901 155.36C20.4601 158.11 21.0901 163.89 35.5101 172.33Z" fill="#338956"/>
<path d="M58.5299 91.7398C61.1899 92.8898 58.6999 104.58 52.9599 117.84L27.0699 177.67C26.9329 177.986 26.735 178.272 26.4873 178.511C26.2397 178.751 25.9474 178.939 25.6269 179.065C25.3065 179.192 24.9643 179.253 24.6199 179.247C24.2755 179.241 23.9357 179.167 23.6199 179.03C23.3039 178.893 23.018 178.695 22.7785 178.447C22.5391 178.2 22.3508 177.907 22.2245 177.587C22.0982 177.266 22.0363 176.924 22.0424 176.58C22.0485 176.235 22.1224 175.896 22.2599 175.58L37.7499 139.77C35.0899 138.62 33.1699 137.14 38.9099 123.87C44.6499 110.6 55.8699 90.5898 58.5299 91.7398Z" fill="#C9EAF0"/>
<path d="M25.0004 175.58L40.4904 139.77C37.8404 138.62 35.9204 137.14 41.6604 123.87C46.4404 112.81 55.0404 97.0699 59.3004 92.7999C59.2513 92.576 59.1545 92.3653 59.0164 92.1823C58.8783 91.9994 58.7023 91.8484 58.5004 91.7398C55.8404 90.5898 44.6204 110.61 38.8804 123.87C33.1404 137.13 35.0604 138.62 37.7204 139.77L22.2304 175.58C22.0074 176.093 21.9548 176.665 22.0803 177.21C22.2058 177.756 22.5028 178.247 22.9278 178.612C23.3527 178.976 23.8832 179.195 24.4416 179.236C24.9999 179.277 25.5567 179.138 26.0304 178.84C25.4953 178.511 25.0965 178.001 24.9073 177.402C24.7181 176.803 24.7512 176.156 25.0004 175.58Z" fill="#B1E1EB"/>
<path d="M115.76 59.52C111.984 61.1476 109.008 64.206 107.484 68.0245C105.96 71.843 106.013 76.11 107.63 79.89C107.841 80.3793 108.237 80.7648 108.732 80.9617C108.978 81.0592 109.239 81.1074 109.503 81.1037C109.767 81.1 110.028 81.0443 110.27 80.9399C110.512 80.8355 110.731 80.6845 110.915 80.4953C111.099 80.3061 111.244 80.0825 111.342 79.8374C111.439 79.5922 111.487 79.3303 111.484 79.0665C111.48 78.8027 111.424 78.5423 111.32 78.3C110.678 76.9065 110.322 75.3984 110.272 73.8649C110.222 72.3314 110.48 70.8035 111.03 69.3713C111.581 67.9391 112.412 66.6316 113.476 65.5259C114.54 64.4203 115.814 63.5389 117.224 62.9338C118.634 62.3287 120.151 62.012 121.685 62.0026C123.22 61.9932 124.74 62.2912 126.157 62.879C127.575 63.4667 128.86 64.3324 129.937 65.4249C131.014 66.5174 131.862 67.8146 132.43 69.2399C132.641 69.7293 133.037 70.1148 133.532 70.3117C133.778 70.4092 134.039 70.4574 134.303 70.4537C134.567 70.45 134.828 70.3944 135.07 70.29C135.312 70.1856 135.531 70.0345 135.715 69.8453C135.899 69.6561 136.044 69.4326 136.142 69.1874C136.239 68.9423 136.287 68.6804 136.284 68.4166C136.28 68.1528 136.224 67.8923 136.12 67.65C134.494 63.8752 131.438 60.8993 127.621 59.3752C123.804 57.8511 119.538 57.9031 115.76 59.52Z" fill="black"/>
<path d="M170.91 30.8999C168.869 31.7708 167.038 33.0698 165.542 34.7092C164.046 36.3487 162.92 38.2901 162.239 40.4025C161.559 42.5148 161.339 44.7488 161.597 46.9531C161.854 49.1575 162.581 51.2811 163.73 53.1799C163.867 53.4058 164.046 53.6025 164.259 53.7589C164.472 53.9153 164.713 54.0284 164.969 54.0916C165.226 54.1547 165.492 54.1667 165.753 54.127C166.014 54.0872 166.264 53.9965 166.49 53.8599C166.716 53.7233 166.913 53.5436 167.069 53.3309C167.226 53.1183 167.339 52.877 167.402 52.6207C167.465 52.3645 167.477 52.0982 167.437 51.8373C167.398 51.5763 167.307 51.3257 167.17 51.0999C165.662 48.4956 165.236 45.4037 165.984 42.4887C166.731 39.5737 168.593 37.0682 171.168 35.5109C173.743 33.9536 176.826 33.4686 179.755 34.1603C182.683 34.852 185.224 36.665 186.83 39.2099C186.967 39.4351 187.146 39.6312 187.359 39.787C187.571 39.9428 187.812 40.0553 188.068 40.1179C188.324 40.1806 188.589 40.1923 188.85 40.1524C189.11 40.1124 189.36 40.0215 189.585 39.8849C189.81 39.7483 190.007 39.5687 190.162 39.3563C190.318 39.144 190.431 38.9031 190.493 38.6472C190.556 38.3914 190.568 38.1257 190.528 37.8654C190.488 37.605 190.397 37.3551 190.26 37.1299C188.328 33.9328 185.306 31.5416 181.75 30.3967C178.194 29.2519 174.345 29.4306 170.91 30.8999Z" fill="black"/>
<path d="M250.71 41.6C249.622 39.5889 248.202 37.7766 246.51 36.24C245.621 35.386 244.58 34.7075 243.44 34.24C242.732 33.9335 241.954 33.8263 241.19 33.93C240.735 34.0116 240.304 34.1882 239.923 34.4485C239.542 34.7087 239.221 35.0466 238.98 35.4399C238.615 36.0548 238.37 36.7336 238.26 37.4399C238.156 38.0511 238.106 38.6702 238.11 39.29C238.127 40.4517 238.247 41.6096 238.47 42.75C238.876 44.991 239.625 47.1563 240.69 49.17C240.75 46.89 240.69 44.69 240.63 42.53C240.63 41.46 240.63 40.39 240.69 39.38C240.708 38.5016 240.899 37.6354 241.25 36.8299C241.41 36.5799 241.44 36.56 241.66 36.47C241.995 36.4181 242.337 36.4456 242.66 36.55C243.597 36.8625 244.491 37.2925 245.32 37.8299C247.12 38.9399 248.87 40.29 250.71 41.6Z" fill="#205134"/>
<path d="M242.57 45.2098C243.36 46.8098 245 45.9498 246.19 45.3698C247.38 44.7898 247.87 43.3698 247.08 41.7698C246.29 40.1698 244.02 38.7698 242.84 39.3898C241.66 40.0098 241.79 43.6198 242.57 45.2098Z" fill="#205134"/>
<path d="M146.54 14.7299C147.13 17.5199 151.96 18.8599 157.32 17.7299C162.68 16.5999 166.55 13.4199 165.96 10.6299C165.37 7.83989 160.55 6.49989 155.19 7.62989C149.83 8.75989 146 11.9399 146.54 14.7299Z" fill="#205134"/>
<path d="M108.14 33.5401C109.81 35.8401 107.56 40.3201 103.14 43.5401C98.7204 46.7601 93.7404 47.4801 92.0704 45.1701C90.4004 42.8601 92.6504 38.3801 97.0704 35.1701C101.49 31.9601 106.47 31.2301 108.14 33.5401Z" fill="#205134"/>
<path d="M31.6204 166.86C37.5409 166.86 42.3404 162.06 42.3404 156.14C42.3404 150.219 37.5409 145.42 31.6204 145.42C25.6999 145.42 20.9004 150.219 20.9004 156.14C20.9004 162.06 25.6999 166.86 31.6204 166.86Z" fill="#4EAF79"/>
<path d="M259.16 78.9399L259.85 64.31C259.857 64.1577 259.91 64.011 260 63.8885C260.091 63.766 260.216 63.6731 260.36 63.6217C260.503 63.5703 260.659 63.5627 260.806 63.5998C260.954 63.6368 261.088 63.7169 261.19 63.8299L268.45 71.8899L259.16 78.9399Z" fill="white"/>
<path d="M191.811 105.87L195.411 91.67C195.448 91.5221 195.529 91.3887 195.643 91.2868C195.756 91.1849 195.897 91.1192 196.048 91.0977C196.2 91.0763 196.354 91.1002 196.491 91.1665C196.629 91.2327 196.743 91.3384 196.82 91.4699L202.911 101.79L191.811 105.87Z" fill="white"/>
<path d="M193.1 132.91C192.941 132.26 193.032 131.573 193.357 130.987C193.681 130.402 194.214 129.96 194.85 129.75C143.05 144.31 107.28 133.05 107.28 133.05C108.415 133.513 109.348 134.365 109.91 135.454C110.473 136.543 110.629 137.797 110.35 138.99C156.16 145.92 189 134.42 193.1 132.91Z" fill="#338956"/>
<path d="M170.64 107.08C169.85 108.71 146.2 126.35 152.64 137.96C159.08 149.57 176.35 141.17 182.01 132.96C187.67 124.75 191.77 105.96 191.77 105.96L170.64 107.08Z" fill="#AF5D45"/>
<path d="M167.52 108.14L177.28 117.78C177.374 117.871 177.494 117.932 177.623 117.953C177.752 117.975 177.885 117.957 178.004 117.902C178.123 117.847 178.223 117.757 178.29 117.644C178.357 117.531 178.388 117.401 178.38 117.27L177.87 107.08L167.52 108.14Z" fill="white"/>
<path d="M159.53 108.51C159.326 108.497 159.135 108.403 159 108.249C158.865 108.095 158.797 107.894 158.81 107.69C158.823 107.486 158.917 107.295 159.071 107.16C159.225 107.025 159.426 106.957 159.63 106.97C172.05 107.466 184.475 106.118 196.5 102.97C208.552 99.9043 220.324 95.8265 231.69 90.78C243.085 85.7827 254.192 80.1539 264.96 73.92C275.52 67.81 292.71 57.1 292.54 57.51C291.79 59.3843 290.887 61.1938 289.84 62.92C282.27 67.86 274.53 72.48 266.64 76.92C255.666 83.0312 244.362 88.5296 232.78 93.39C221.203 98.2952 209.234 102.219 197 105.12C184.746 108.093 172.119 109.236 159.53 108.51Z" fill="#205134"/>
<path d="M213.19 245.26C213.19 286.92 187.7 304.95 156.25 304.95C124.8 304.95 99.3203 286.95 99.3203 245.26C99.3203 203.57 124.81 154.07 156.25 154.07C187.69 154.07 213.19 203.6 213.19 245.26Z" fill="#338956"/>
<path d="M211.62 244.83C211.62 285.34 186.83 302.88 156.25 302.88C125.67 302.88 100.88 285.34 100.88 244.83C100.88 204.32 125.67 156.14 156.25 156.14C186.83 156.14 211.62 204.31 211.62 244.83Z" fill="#7CC499"/>
<path d="M289.76 155.36C288.13 153.59 278.1 154.08 265.91 154.63C265.91 154.63 262.57 165.24 271.78 175.31C291.48 165.24 292.59 158.42 289.76 155.36Z" fill="#338956"/>
<path d="M268.86 104.15C268.519 104.339 268.262 104.651 268.143 105.023C268.024 105.394 268.052 105.798 268.22 106.15L273.29 117.43C275.58 122.53 274.09 128.27 270.02 130.95L260.44 109.64C260.381 109.446 260.281 109.267 260.147 109.114C260.014 108.962 259.849 108.84 259.664 108.756C259.48 108.672 259.28 108.628 259.077 108.628C258.874 108.627 258.673 108.67 258.488 108.753C258.303 108.836 258.138 108.957 258.003 109.109C257.869 109.26 257.768 109.439 257.708 109.632C257.647 109.826 257.629 110.03 257.653 110.232C257.678 110.433 257.745 110.627 257.85 110.8L267.43 132.11C262.72 133.38 257.43 130.68 255.15 125.58L250.08 114.3C250.017 114.111 249.914 113.938 249.78 113.79C249.645 113.643 249.482 113.526 249.299 113.446C249.117 113.366 248.92 113.325 248.72 113.326C248.521 113.326 248.324 113.368 248.142 113.45C247.96 113.531 247.797 113.649 247.664 113.797C247.53 113.945 247.429 114.119 247.367 114.308C247.304 114.498 247.282 114.698 247.302 114.896C247.321 115.094 247.382 115.286 247.48 115.46L252.56 126.75C255.56 133.49 262.69 136.98 268.87 135C271.52 143.12 277.45 157.82 282.05 168C288.62 182.63 289.99 182.6 291.41 182C292.83 181.4 293.76 180.36 287.19 165.74C282.59 155.5 275.53 141.31 271.19 133.93C276.77 130.63 278.87 123 275.84 116.26L270.77 104.97C270.616 104.616 270.332 104.335 269.977 104.182C269.623 104.03 269.223 104.018 268.86 104.15Z" fill="#C9EAF0"/>
<path d="M283.5 167.44C278.9 157.21 272.97 142.51 270.32 134.44C264.14 136.44 257.04 132.93 254 126.19L248.93 114.9C248.821 114.679 248.764 114.436 248.764 114.19C248.764 113.944 248.821 113.701 248.93 113.48C248.655 113.385 248.356 113.385 248.08 113.48C247.735 113.665 247.475 113.977 247.354 114.35C247.233 114.722 247.26 115.127 247.43 115.48L252.51 126.77C255.51 133.51 262.64 137 268.82 135.02C271.47 143.14 277.4 157.84 282 168.02C288.57 182.65 289.94 182.62 291.36 182.02C291.615 181.923 291.844 181.769 292.03 181.57C290.79 181.58 288.91 179.47 283.5 167.44Z" fill="#B1E1EB"/>
<path d="M271.47 130.34C275.54 127.66 277.03 121.92 274.74 116.82L269.67 105.53C269.559 105.31 269.501 105.067 269.501 104.82C269.501 104.573 269.559 104.33 269.67 104.11C269.395 104.015 269.096 104.015 268.82 104.11C268.479 104.299 268.222 104.611 268.103 104.983C267.984 105.355 268.012 105.758 268.18 106.11L273.25 117.39C274.233 119.427 274.567 121.716 274.21 123.949C273.852 126.182 272.819 128.252 271.25 129.88L271.47 130.34Z" fill="#B1E1EB"/>
<path d="M268.88 131.5L259.3 110.19C259.191 109.969 259.134 109.726 259.134 109.48C259.134 109.234 259.191 108.991 259.3 108.77C259.025 108.675 258.725 108.675 258.45 108.77C258.103 108.954 257.841 109.265 257.719 109.638C257.598 110.012 257.627 110.418 257.8 110.77L267.21 131.7C267.771 131.685 268.331 131.618 268.88 131.5Z" fill="#B1E1EB"/>
<path d="M281.2 166.86C287.121 166.86 291.921 162.06 291.921 156.14C291.921 150.219 287.121 145.42 281.2 145.42C275.28 145.42 270.48 150.219 270.48 156.14C270.48 162.06 275.28 166.86 281.2 166.86Z" fill="#4EAF79"/>
<path d="M312.25 321.84C312.06 320.49 310.25 319.52 307.56 319.08C307.468 319.065 307.383 319.021 307.318 318.954C307.253 318.887 307.21 318.801 307.197 318.709C307.184 318.616 307.2 318.522 307.244 318.44C307.287 318.357 307.356 318.291 307.44 318.25C309.92 317.07 311.44 315.63 311.19 314.25C311.02 313.06 309.59 312.17 307.41 311.67V311.32C309.91 310.14 311.41 308.68 311.21 307.32C310.86 304.88 305.29 304.22 298.64 304.62C296.643 304.76 294.638 304.76 292.64 304.62C292.64 304.62 280.14 322.51 227.33 321.94C215.07 321.81 208.68 312.32 213.47 301.03C214.959 297.411 216.837 293.964 219.07 290.75C219.148 290.64 219.184 290.506 219.174 290.372C219.163 290.238 219.107 290.111 219.013 290.014C218.92 289.917 218.796 289.856 218.662 289.841C218.528 289.825 218.393 289.857 218.28 289.93C214.16 292.71 205.97 299.12 197.16 310.87C193.135 316.267 187.93 320.674 181.942 323.754C175.954 326.833 169.342 328.505 162.61 328.64C161.38 328.64 160.15 328.64 158.91 328.7C156.617 328.7 154.347 328.7 152.1 328.7C145.304 328.618 138.618 326.967 132.564 323.876C126.51 320.785 121.252 316.337 117.2 310.88C108.4 299.13 100.2 292.72 96.0803 289.93C95.9674 289.857 95.8324 289.825 95.6987 289.841C95.565 289.856 95.4408 289.917 95.3474 290.014C95.2541 290.111 95.1973 290.238 95.1869 290.372C95.1764 290.506 95.213 290.64 95.2903 290.75C97.5642 294.032 99.4723 297.553 100.98 301.25C105.77 312.66 99.3003 322.1 86.9803 322.16C30.9203 322.45 21.8003 304.47 21.8003 304.47C19.3082 304.765 16.7941 304.829 14.2903 304.66C7.65031 304.26 2.0703 304.92 1.7203 307.36C1.5303 308.72 3.02036 310.18 5.53036 311.36V311.71C3.35036 312.21 1.92032 313.1 1.74032 314.29C1.55032 315.65 3.02032 317.09 5.49032 318.29C5.57436 318.331 5.64326 318.397 5.68704 318.48C5.73081 318.562 5.74721 318.656 5.73385 318.749C5.72049 318.841 5.67805 318.927 5.61269 318.994C5.54734 319.061 5.46246 319.105 5.37032 319.12C2.69032 319.56 0.880321 320.53 0.680321 321.88C0.330321 324.32 5.68031 325.99 11.9803 328.01C17.3603 329.73 51.5003 343.11 84.1103 344.2C93.3233 344.546 102.549 344.118 111.69 342.92C122.177 341.426 132.815 341.315 143.33 342.59C152.114 343.67 160.997 343.67 169.78 342.59C180.296 341.315 190.934 341.426 201.42 342.92C210.565 344.118 219.794 344.546 229.01 344.2C261.62 343.11 295.76 329.73 301.14 328.01C307.3 326 312.6 324.28 312.25 321.84Z" fill="#338956"/>
<path d="M52.46 180.49C63.41 184.49 78.5899 187.42 93.8099 188.66C93.8099 188.66 97.4199 178.25 99.4999 173.59C99.5403 173.496 99.5515 173.392 99.5323 173.292C99.5131 173.192 99.4642 173.1 99.392 173.028C99.3199 172.956 99.2278 172.907 99.1276 172.888C99.0274 172.868 98.9237 172.88 98.83 172.92C93.52 175.28 72.46 183.82 52.46 180.49Z" fill="#338956"/>
<path d="M214.63 176L218.95 188.66C236.32 187.25 253.66 183.66 264.7 178.66C239.43 183.56 219.88 177.04 215.29 175.3C215.194 175.257 215.086 175.246 214.983 175.266C214.879 175.287 214.785 175.34 214.712 175.417C214.64 175.493 214.593 175.591 214.578 175.695C214.564 175.8 214.582 175.906 214.63 176Z" fill="#338956"/>
</svg>
